<svg width="30" height="20" viewBox="0 0 30 20" fill="none" xmlns="http://www.w3.org/2000/svg">
<mask id="mask0_0_39" style="mask-type:luminance" maskUnits="userSpaceOnUse" x="0" y="0" width="30" height="20">
<path fill-rule="evenodd" clip-rule="evenodd" d="M0.511742 0H29.032V19.9713H0.511742V0Z" fill="white"/>
</mask>
<g mask="url(#mask0_0_39)">
<path fill-rule="evenodd" clip-rule="evenodd" d="M28.4443 3.12501C28.1155 1.90306 27.1521 0.939889 25.9306 0.610864C23.6985 0 14.77 0 14.77 0C14.77 0 5.84177 0 3.60968 0.587577C2.41146 0.916379 1.42456 1.90329 1.09575 3.12501C0.5084 5.35688 0.5084 9.98563 0.5084 9.98563C0.5084 9.98563 0.5084 14.6377 1.09575 16.8463C1.42478 18.068 2.38795 19.0314 3.6099 19.3604C5.86528 19.9713 14.7702 19.9713 14.7702 19.9713C14.7702 19.9713 23.6985 19.9713 25.9306 19.3837C27.1523 19.0549 28.1155 18.0915 28.4445 16.8697C29.0319 14.6377 29.0319 10.0091 29.0319 10.0091C29.0319 10.0091 29.0554 5.35688 28.4443 3.12501Z" fill="#FF0000"/>
</g>
<path fill-rule="evenodd" clip-rule="evenodd" d="M11.9273 14.2619L19.3517 9.98568L11.9273 5.70947V14.2619Z" fill="white"/>
</svg>
